<svg width="194" height="28" viewBox="0 0 194 28" fill="none" xmlns="http://www.w3.org/2000/svg">
<path d="M46.0161 5.39302L53.3321 23.12C52.3622 23.3305 51.3735 23.4427 50.3811 23.455C49.8146 23.4536 49.2491 23.4068 48.6901 23.315L47.2761 19.77H39.9601L38.5461 23.315C37.8524 23.395 37.1544 23.4324 36.4561 23.427C35.6357 23.4517 34.8165 23.3481 34.0281 23.12L41.4061 5.39302C42.1885 5.26928 42.9801 5.21374 43.7721 5.22702C44.5235 5.21644 45.2744 5.27198 46.0161 5.39302V5.39302ZM41.3741 16.309H45.8621L44.2021 12.177L43.5861 10.447L43.0331 12.178L41.3741 16.309Z" fill="white"/>
<path d="M70.177 5.256C70.9585 5.25901 71.739 5.3148 72.513 5.423V23.232C71.0599 23.4759 69.5833 23.5508 68.113 23.455L60.489 13.265L59.843 12.204L59.966 13.488V23.316C59.2025 23.4249 58.4323 23.4807 57.661 23.483C56.9102 23.4748 56.1607 23.419 55.417 23.316V5.556C56.1091 5.36672 56.8209 5.25899 57.538 5.235C58.2962 5.18684 59.0571 5.20089 59.813 5.277L67.406 15.69L68.082 16.778L67.959 15.355V5.421C68.694 5.31785 69.4349 5.26274 70.177 5.256V5.256Z" fill="white"/>
<path d="M85.856 23.8181C84.4538 23.8303 83.0601 23.5989 81.737 23.1341C80.5209 22.709 79.3999 22.05 78.437 21.1941C77.5027 20.3543 76.7631 19.3205 76.27 18.1651C75.7627 16.9539 75.5015 15.6538 75.5015 14.3406C75.5015 13.0274 75.7627 11.7273 76.27 10.5161C76.7653 9.35786 77.5045 8.31996 78.437 7.47309C79.3986 6.60869 80.5195 5.9402 81.737 5.50509C83.058 5.03049 84.4525 4.7935 85.856 4.80509C87.2634 4.79374 88.6623 5.02513 89.991 5.4891C91.2092 5.90972 92.3311 6.56927 93.291 7.42909C94.2174 8.27264 94.9514 9.3057 95.443 10.4581C95.9632 11.6803 96.2247 12.9969 96.211 14.3251C96.2191 15.6253 95.9576 16.913 95.443 18.1071C94.9476 19.2653 94.2085 20.3031 93.276 21.1501C92.3092 22.0175 91.1811 22.6862 89.956 23.1181C88.6408 23.5895 87.2531 23.8265 85.856 23.8181V23.8181ZM85.856 19.8821C86.5761 19.9133 87.2947 19.7941 87.9662 19.5322C88.6376 19.2704 89.2472 18.8715 89.756 18.3611C90.2579 17.8206 90.6469 17.1854 90.9004 16.4928C91.1538 15.8001 91.2666 15.0639 91.232 14.3271C91.2706 13.5836 91.1599 12.8398 90.9064 12.1398C90.6529 11.4397 90.2618 10.7975 89.756 10.2511C88.6872 9.28102 87.2954 8.74363 85.852 8.74363C84.4086 8.74363 83.0169 9.28102 81.948 10.2511C81.4425 10.7976 81.0516 11.4399 80.7982 12.1399C80.5449 12.8399 80.4343 13.5836 80.473 14.3271C80.4384 15.0638 80.5511 15.8 80.8043 16.4926C81.0576 17.1853 81.4464 17.8205 81.948 18.3611C82.4578 18.8725 83.0687 19.272 83.7416 19.5339C84.4145 19.7958 85.1346 19.9144 85.856 19.8821V19.8821Z" fill="white"/>
<path d="M110.758 16.2249L115.369 23.1249C114.095 23.3836 112.796 23.496 111.496 23.4599L110.328 23.4319L106.271 17.1509H106.056L103.812 17.1229V23.3229C103.06 23.4467 102.299 23.5026 101.537 23.4899C100.755 23.499 99.9732 23.4432 99.2002 23.3229V5.67194C100.102 5.50461 101.178 5.36494 102.428 5.25294C103.678 5.14094 104.816 5.08528 105.84 5.08594C106.896 5.08506 107.95 5.17371 108.991 5.35094C109.946 5.49992 110.867 5.81646 111.711 6.28594C112.521 6.728 113.19 7.38932 113.641 8.19408C114.092 8.99883 114.308 9.91445 114.262 10.8359C114.252 11.494 114.148 12.1472 113.954 12.7759C113.727 13.5122 113.332 14.1858 112.801 14.7439C112.225 15.368 111.531 15.8714 110.758 16.2249V16.2249ZM103.811 8.68795V13.6879L106.239 13.7159C107.142 13.786 108.039 13.5227 108.76 12.9759C109.029 12.7427 109.243 12.4527 109.386 12.127C109.53 11.8012 109.6 11.4478 109.59 11.0919C109.603 10.7425 109.531 10.3952 109.381 10.0793C109.231 9.7634 109.008 9.4882 108.729 9.27695C107.986 8.78149 107.099 8.54591 106.208 8.60694C105.408 8.60494 104.608 8.63161 103.808 8.68695L103.811 8.68795Z" fill="white"/>
<path d="M129.506 14.1591C130.229 14.3895 130.901 14.7543 131.489 15.2341C131.99 15.6335 132.377 16.1582 132.611 16.7551C132.991 17.7581 133.02 18.8603 132.693 19.8819C132.366 20.9034 131.703 21.7841 130.811 22.3801C129.407 23.3388 127.25 23.8181 124.34 23.8181C122.157 23.8359 119.977 23.6687 117.823 23.3181V5.70011C119.933 5.31732 122.073 5.13052 124.217 5.14211C129.443 5.14211 132.056 6.85444 132.056 10.2791C132.113 11.1156 131.895 11.9479 131.434 12.6486C130.974 13.3493 130.297 13.8798 129.506 14.1591ZM124.557 8.49211C123.9 8.49211 123.183 8.52011 122.405 8.57611V12.6211H124.742C125.5 12.6832 126.257 12.4915 126.894 12.0761C127.124 11.8798 127.305 11.6325 127.422 11.3538C127.54 11.0751 127.59 10.7728 127.57 10.4711C127.578 10.1836 127.511 9.89904 127.376 9.64486C127.242 9.39068 127.044 9.1755 126.802 9.02011C126.123 8.62441 125.341 8.44056 124.557 8.49211ZM124.803 20.4681C127.119 20.4681 128.277 19.6864 128.277 18.1231C128.289 17.7989 128.217 17.477 128.069 17.1886C127.92 16.9001 127.7 16.6548 127.429 16.4761C126.692 16.0401 125.84 15.836 124.985 15.8901H122.403V20.3851C123.183 20.4404 123.983 20.4681 124.803 20.4681V20.4681Z" fill="white"/>
<path d="M145.492 5.3929L152.812 23.1209C151.842 23.3314 150.854 23.4436 149.861 23.4559C149.295 23.4545 148.729 23.4077 148.17 23.3159L146.756 19.7709H139.439L138.025 23.3159C137.331 23.3959 136.633 23.4333 135.935 23.4279C135.114 23.4526 134.295 23.349 133.506 23.1209L140.884 5.3939C141.666 5.26993 142.457 5.21406 143.248 5.2269C144 5.21633 144.75 5.27188 145.492 5.3929ZM140.85 16.3089H145.338L143.678 12.1769L143.063 10.4459L142.512 12.1769L140.85 16.3089Z" fill="white"/>
<path d="M169.653 5.256C170.435 5.259 171.215 5.3148 171.989 5.423V23.232C170.536 23.4759 169.059 23.5508 167.589 23.455L159.965 13.265L159.32 12.204L159.443 13.488V23.316C158.679 23.4249 157.909 23.4807 157.137 23.483C156.386 23.4748 155.637 23.419 154.893 23.316V5.556C155.585 5.36671 156.297 5.25898 157.014 5.235C157.772 5.18684 158.533 5.20089 159.289 5.277L166.882 15.69L167.558 16.778L167.435 15.355V5.421C168.17 5.31786 168.911 5.26274 169.653 5.256V5.256Z" fill="white"/>
<path d="M185.608 13.7692L193.999 23.1492C192.848 23.3093 191.687 23.3838 190.525 23.3722L188.096 23.3162L182.04 16.4482L180.657 17.3692V23.3152C179.904 23.4278 179.144 23.4836 178.382 23.4822C177.611 23.4799 176.841 23.4241 176.077 23.3152V5.42118C176.809 5.3086 177.549 5.25277 178.29 5.25418C179.082 5.25645 179.873 5.31224 180.657 5.42118V12.6792C182.003 11.6957 183.258 10.5933 184.407 9.38518C185.573 8.11749 186.643 6.76438 187.607 5.33718C188.324 5.28185 189.092 5.25385 189.912 5.25318C190.939 5.24866 191.966 5.30442 192.986 5.42018C190.936 8.53959 188.452 11.3509 185.608 13.7692V13.7692Z" fill="white"/>
<path d="M17.0169 13.9999V17.0999H13.9309C13.111 17.0975 12.3255 16.7696 11.7472 16.1883C11.1689 15.607 10.8451 14.8199 10.8469 13.9999C10.8446 13.1785 11.1683 12.3898 11.7469 11.8069C12.1785 11.3731 12.7294 11.0775 13.3295 10.9579C13.9296 10.8383 14.5517 10.9 15.1167 11.1352C15.6816 11.3704 16.1637 11.7685 16.5015 12.2786C16.8394 12.7888 17.0178 13.388 17.0139 13.9999H17.0169Z" fill="white"/>
<path d="M19.242 0H8.62202C6.32984 0.00582775 4.13382 0.921851 2.51694 2.54661C0.900053 4.17137 -0.00528772 6.37181 2.32352e-05 8.664V19.336C-0.00502247 21.6281 0.900404 23.8284 2.51723 25.4531C4.13405 27.0778 6.32992 27.9939 8.62202 28H27.863V8.664C27.8686 6.3719 26.9635 4.17146 25.3468 2.54667C23.73 0.921883 21.5341 0.00582756 19.242 0V0ZM21.742 21.845H13.932C11.8568 21.8394 9.86872 21.0098 8.40506 19.5387C6.94139 18.0675 6.12198 16.0752 6.12702 14C6.12354 12.3852 6.61891 10.8087 7.54538 9.48616C8.47185 8.16358 9.78421 7.15943 11.303 6.611V4.265C11.3029 4.22879 11.3136 4.19337 11.3337 4.16326C11.3538 4.13316 11.3824 4.10973 11.4159 4.09599C11.4494 4.08225 11.4863 4.07881 11.5217 4.08611C11.5572 4.09342 11.5897 4.11114 11.615 4.137L12.868 5.416C12.8864 5.43476 12.9087 5.44931 12.9333 5.45864C12.9579 5.46798 12.9842 5.47188 13.0104 5.47007C13.0366 5.46827 13.0622 5.4608 13.0852 5.44818C13.1083 5.43557 13.1283 5.41811 13.144 5.397L13.787 4.534C13.804 4.51124 13.826 4.49276 13.8513 4.48003C13.8767 4.4673 13.9047 4.46066 13.933 4.46066C13.9614 4.46066 13.9894 4.4673 14.0147 4.48003C14.0401 4.49276 14.0621 4.51124 14.079 4.534L14.723 5.397C14.7386 5.41825 14.7586 5.43585 14.7817 5.44856C14.8048 5.46128 14.8303 5.4688 14.8566 5.47061C14.8829 5.47242 14.9093 5.46847 14.9339 5.45904C14.9584 5.44961 14.9807 5.43492 14.999 5.416L16.253 4.137C16.2784 4.11114 16.3108 4.09342 16.3463 4.08611C16.3818 4.07881 16.4186 4.08225 16.4521 4.09599C16.4856 4.10973 16.5142 4.13316 16.5344 4.16326C16.5545 4.19337 16.5651 4.22879 16.565 4.265V6.611C18.0833 7.16009 19.3951 8.16443 20.3213 9.48689C21.2476 10.8094 21.743 12.3855 21.74 14L21.742 21.845Z" fill="white"/>
</svg>
