<svg width="512" height="325" viewBox="0 0 91 40" fill="white" xmlns="http://www.w3.org/2000/svg">
    <path d="M81.117 26.3283C81.0419 25.7001 80.9006 25.0815 80.6954 24.4827C80.4882 23.8864 80.1738 23.5457 79.7666 23.4747C79.4653 23.4203 79.1546 23.4514 78.8703 23.5644C78.5859 23.6774 78.3394 23.8677 78.159 24.1135C77.6401 24.7436 77.2472 25.4665 77.0015 26.2431C76.6862 27.201 76.4684 28.1879 76.3513 29.189C76.2225 30.1915 76.1843 31.2036 76.237 32.2129C76.2703 33.0416 76.4219 33.8613 76.6871 34.6477C76.9372 35.3575 77.3016 35.6983 77.7874 35.7693C78.2733 35.8402 78.7377 35.5847 79.1735 34.9884C79.658 34.279 80.0381 33.5046 80.3025 32.6885C80.6301 31.6745 80.8691 30.6342 81.017 29.5794C81.1873 28.4944 81.2161 27.3922 81.1027 26.2999L81.117 26.3283ZM79.638 20.6211C80.1548 20.7267 80.6321 20.9724 81.017 21.3309C81.4079 21.7136 81.7401 22.1513 82.003 22.63C82.2911 22.3037 82.6963 22.1024 83.1319 22.0692C83.5751 22.0314 84.021 22.0995 84.4322 22.2679C84.8375 22.432 85.1888 22.7048 85.4468 23.0559C85.5784 23.2347 85.6712 23.4387 85.7191 23.655C85.7671 23.8713 85.7693 24.0951 85.7255 24.3123C85.5754 25.0222 85.4325 25.8243 85.3039 26.8323C85.1753 27.8403 85.0896 28.8127 85.0539 29.7497C85.0142 30.5436 85.0453 31.3393 85.1467 32.1277C85.2396 32.8021 85.4397 33.1357 85.7398 33.1357C86.0399 33.1357 86.2399 32.8447 86.5614 32.2697C86.9158 31.6051 87.2354 30.9227 87.5189 30.2253C87.8404 29.4374 88.1262 28.6566 88.3906 27.8686C88.6014 27.2849 88.771 26.6871 88.8978 26.0798C88.9337 25.9212 89.0025 25.7718 89.0996 25.6411C89.1968 25.5103 89.3203 25.4011 89.4623 25.3203C89.6957 25.1942 89.9665 25.154 90.2268 25.2067C90.4777 25.2682 90.6966 25.42 90.8413 25.6326C90.9274 25.7529 90.9806 25.8933 90.9956 26.0402C91.0106 26.187 90.987 26.3352 90.927 26.4702C90.8556 26.6974 90.7341 27.1162 90.5626 27.7338C90.3911 28.3513 90.1768 29.0257 89.9124 29.7781C89.6481 30.5306 89.3408 31.2972 88.9836 32.0993C88.6487 32.8654 88.2242 33.5897 87.7189 34.2573C87.2962 34.8331 86.7587 35.3163 86.1399 35.677C85.8589 35.8436 85.5458 35.9499 85.221 35.989C84.8961 36.0281 84.5666 35.9992 84.2536 35.9041C83.7373 35.7734 83.257 35.5297 82.8478 35.1907C82.4385 34.8517 82.1108 34.4261 81.8886 33.9449C81.6053 34.8145 81.1936 35.6375 80.6668 36.3868C80.1582 37.1012 79.454 37.6555 78.6377 37.984C77.9729 38.2375 77.2489 38.2966 76.5513 38.1543C76.006 38.0039 75.4961 37.7477 75.0509 37.4005C74.6058 37.0532 74.2342 36.6219 73.9577 36.1313C73.29 35.013 72.8483 33.7761 72.6573 32.4898C72.4339 31.0634 72.4147 29.6127 72.6002 28.181C72.7619 26.781 73.1529 25.4166 73.7577 24.1419C74.2825 23.0125 75.0892 22.0351 76.1012 21.3025C76.616 20.9569 77.1978 20.7221 77.8094 20.6132C78.421 20.5044 79.0488 20.524 79.6523 20.6708L79.638 20.6211ZM72.0786 16.5892C72.1591 16.9777 72.1089 17.3817 71.9357 17.7391C71.7565 18.1075 71.4979 18.4323 71.1783 18.6903C70.8213 18.985 70.4214 19.2243 69.9923 19.4002C69.5344 19.5911 69.0544 19.7246 68.5633 19.7977C67.6318 19.9065 66.6876 19.8096 65.7982 19.5137C65.4226 19.4216 65.082 19.2229 64.8181 18.9418C64.5543 18.6607 64.3784 18.3094 64.312 17.9308C64.2686 17.825 64.2491 17.7112 64.2549 17.5971V17.4268C64.3 17.0825 64.4159 16.7511 64.5954 16.4531C64.7748 16.1552 65.014 15.897 65.298 15.6947C66.0073 15.1652 66.8366 14.8167 67.713 14.6797H67.8774C67.8867 14.7622 67.8867 14.8456 67.8774 14.9281C67.8711 15.0132 67.8711 15.0986 67.8774 15.1837C67.7971 15.6804 67.5623 16.1396 67.2057 16.4969C66.8613 16.8641 66.4611 17.1755 66.0197 17.4197C65.6696 17.6226 65.2881 17.7665 64.8908 17.8456C64.5549 17.8953 64.362 17.8456 64.3263 17.59V17.4197C64.3263 17.3842 64.3263 17.3629 64.3263 17.3629C64.3263 17.3629 64.3263 17.3629 64.3263 17.3132C64.4785 16.7144 64.5812 16.1043 64.6335 15.4889C64.6825 14.9481 64.6825 14.4041 64.6335 13.8633C64.6144 13.4716 64.5398 13.0845 64.412 12.7134C64.2977 12.4152 64.1262 12.2662 63.9047 12.2662C63.6833 12.2662 63.4832 12.4365 63.3117 12.7702C63.0871 13.3068 62.945 13.8739 62.8902 14.4525C62.7758 15.2404 62.6901 16.2626 62.6329 17.5333C62.5758 18.8039 62.5329 20.3726 62.49 22.2395C63.3546 22.1686 64.2334 22.1189 65.1123 22.0976H67.2557C67.5948 22.0631 67.9373 22.0822 68.2703 22.1544C68.5923 22.2236 68.8933 22.367 69.1492 22.5732C69.3964 22.784 69.5981 23.0424 69.7422 23.3327C69.891 23.6394 69.9313 23.9871 69.8565 24.3194C69.7065 25.0293 69.5707 25.8314 69.435 26.8394C69.2992 27.8474 69.2206 28.8198 69.1849 29.7568C69.1406 30.5599 69.1693 31.3653 69.2706 32.1632C69.3635 32.8376 69.5779 33.1712 69.9137 33.1712C70.2495 33.1712 70.4138 32.8802 70.7353 32.3052C71.0912 31.6454 71.4015 30.9624 71.6642 30.2608C71.9643 29.4729 72.2501 28.6921 72.5073 27.9041C72.7182 27.3204 72.8877 26.7226 73.0146 26.1153C73.0517 25.9572 73.1209 25.8083 73.2179 25.6777C73.315 25.5471 73.4379 25.4375 73.579 25.3558C73.8127 25.2303 74.0832 25.1901 74.3435 25.2422C74.5956 25.3052 74.8164 25.4564 74.9652 25.6681C75.0476 25.79 75.0985 25.9302 75.1134 26.0763C75.1284 26.2224 75.1069 26.3699 75.0509 26.5057C74.9723 26.7329 74.8508 27.1517 74.6794 27.7693C74.5079 28.3868 74.2935 29.0612 74.0363 29.8136C73.7791 30.5661 73.429 31.3256 73.0789 32.1277C72.7487 32.8814 72.334 33.5958 71.8428 34.2573C71.423 34.8254 70.8965 35.3075 70.2924 35.677C70.0154 35.8439 69.706 35.9505 69.3845 35.9896C69.063 36.0288 68.7368 35.9997 68.4275 35.9041C67.9775 35.786 67.556 35.5794 67.1878 35.2965C66.8196 35.0136 66.5123 34.6603 66.284 34.2573C65.824 33.3779 65.5653 32.4082 65.5267 31.4179C65.4415 30.2624 65.4415 29.1022 65.5267 27.9467C65.6195 26.7116 65.6624 25.4978 65.6624 24.3052C65.2123 24.3052 64.7193 24.3052 64.1691 24.3052L62.5043 24.3904C62.4662 25.9568 62.4662 27.703 62.5043 29.6291C62.5424 31.5551 62.5686 33.6847 62.5829 36.0177C62.5907 36.3329 62.5353 36.6464 62.42 36.9401C62.3047 37.2338 62.1318 37.5017 61.9113 37.7284C61.5028 38.1696 60.9857 38.4975 60.4109 38.6796C59.9306 38.8493 59.4095 38.8691 58.9176 38.7364C58.7122 38.6892 58.5311 38.5698 58.4076 38.4001C58.2841 38.2305 58.2267 38.0221 58.2459 37.8136L58.6389 24.3691C58.2072 24.3613 57.7864 24.2335 57.4243 24C57.3 23.9233 57.1948 23.8196 57.1168 23.6966C57.0389 23.5736 56.9901 23.4346 56.9741 23.2901C56.9696 23.1477 57.0036 23.0066 57.0728 22.8817C57.1419 22.7569 57.2436 22.6527 57.3671 22.5803C57.7681 22.3404 58.228 22.2151 58.6961 22.2183C58.8104 19.9751 58.97 18.1082 59.1748 16.6175C59.3151 15.3793 59.6178 14.1647 60.075 13.0044C60.3716 12.2118 60.9021 11.5265 61.5969 11.0381C62.3074 10.6135 63.1124 10.3697 63.9405 10.3283C64.4883 10.284 65.0372 10.3999 65.5195 10.6619C65.9988 10.9193 66.4196 11.2721 66.7556 11.6983C67.096 12.1303 67.3727 12.6084 67.5773 13.118C67.7711 13.567 67.8755 14.0492 67.8845 14.5377C68.847 14.3688 69.8381 14.4746 70.7425 14.8429C71.1134 14.9879 71.4362 15.2328 71.6748 15.5501C71.9133 15.8673 72.0581 16.2444 72.0929 16.6388L72.0786 16.5892ZM50.7794 26.3283C50.7043 25.7001 50.563 25.0815 50.3579 24.4827C50.1507 23.8864 49.8363 23.5457 49.4219 23.4747C49.1206 23.4211 48.8102 23.4526 48.5261 23.5655C48.2419 23.6785 47.9953 23.8683 47.8143 24.1135C47.3001 24.7456 46.9099 25.468 46.6639 26.2431C46.3487 27.201 46.1308 28.1879 46.0137 29.189C45.8815 30.1913 45.8432 31.2036 45.8994 32.2129C45.9328 33.0416 46.0844 33.8613 46.3496 34.6477C46.5925 35.3575 46.964 35.6983 47.4499 35.7693C47.9357 35.8402 48.4002 35.5847 48.8289 34.9884C49.3188 34.2822 49.6994 33.5069 49.9578 32.6885C50.2888 31.6754 50.5279 30.6349 50.6723 29.5794C50.8473 28.5046 50.8833 27.4121 50.7794 26.3283ZM49.3504 20.6495C49.8672 20.7551 50.3445 21.0008 50.7294 21.3593C51.1149 21.7203 51.4469 22.1338 51.7154 22.5874C52.0035 22.2611 52.4087 22.0598 52.8443 22.0266C53.2852 21.9882 53.7289 22.0564 54.1376 22.2254C54.5449 22.3892 54.8985 22.6619 55.1593 23.0133C55.2901 23.2017 55.3793 23.4155 55.4212 23.6406C55.463 23.8656 55.4566 24.097 55.4022 24.3194C55.2522 25.0293 55.1093 25.8314 54.9807 26.8394C54.8521 27.8474 54.7663 28.8198 54.7235 29.7568C54.6848 30.5481 54.7135 31.3412 54.8092 32.1277C54.9021 32.8021 55.1021 33.1357 55.4022 33.1357C55.7023 33.1357 55.9024 32.8447 56.2168 32.2697C56.5766 31.6068 56.8986 30.9242 57.1813 30.2253C57.4957 29.4374 57.7887 28.6566 58.053 27.8686C58.2605 27.2838 58.43 26.6863 58.5603 26.0798C58.6014 25.9252 58.674 25.7805 58.7735 25.6547C58.873 25.529 58.9974 25.4248 59.1391 25.3487C59.3579 25.2329 59.6093 25.193 59.8535 25.2351C60.1073 25.2943 60.3293 25.4464 60.4752 25.661C60.5624 25.7806 60.6169 25.9208 60.6332 26.0676C60.6495 26.2145 60.627 26.363 60.568 26.4986C60.4966 26.7258 60.368 27.1446 60.2037 27.7622C60.0393 28.3797 59.8178 29.0541 59.5535 29.8065C59.2891 30.559 58.9819 31.3256 58.6246 32.1277C58.2945 32.8829 57.8773 33.5976 57.3814 34.2573C56.9568 34.8315 56.4197 35.3144 55.8024 35.677C55.5213 35.8436 55.2083 35.9499 54.8834 35.989C54.5586 36.0281 54.229 35.9992 53.9161 35.9041C53.3985 35.7744 52.9167 35.5311 52.5062 35.192C52.0957 34.853 51.7669 34.4268 51.544 33.9449C51.2629 34.8141 50.8535 35.637 50.3293 36.3868C49.8207 37.1012 49.1164 37.6555 48.3001 37.984C47.6329 38.2377 46.9066 38.2968 46.2067 38.1543C45.1074 37.8463 44.1752 37.1191 43.613 36.1313C42.9476 35.0126 42.5083 33.7756 42.3198 32.4898C42.0929 31.0637 42.0736 29.6125 42.2626 28.181C42.4216 26.7804 42.8127 25.4156 43.4201 24.1419C43.9424 23.013 44.7467 22.0355 45.7565 21.3025C46.2727 20.9571 46.8558 20.7224 47.4685 20.6137C48.0812 20.5049 48.71 20.5243 49.3147 20.6708L49.3504 20.6495ZM28.5014 0C29.2159 0 30.0519 -1.05776e-07 31.1236 0.113576C32.2685 0.1948 33.4085 0.334589 34.5389 0.532386C35.7751 0.745233 36.9987 1.02485 38.2043 1.37C39.3627 1.69362 40.4781 2.15355 41.5267 2.74001C42.4507 3.25434 43.2659 3.94131 43.9274 4.76308C44.5466 5.54184 44.8726 6.51097 44.8491 7.5031C44.8748 8.14842 44.7395 8.79003 44.4553 9.37086C44.171 9.95169 43.7467 10.4537 43.2201 10.8323C42.1119 11.6422 40.7658 12.0664 39.3904 12.039C39.2169 12.0244 39.0448 11.9959 38.8759 11.9538C38.6007 11.8919 38.3289 11.8161 38.0614 11.7267C37.8114 11.6425 37.5717 11.5306 37.3469 11.3931C37.2584 11.3473 37.1834 11.2794 37.1295 11.1959C37.0756 11.1125 37.0446 11.0165 37.0397 10.9175C37.0487 10.7182 37.1146 10.5256 37.2298 10.3622C37.3449 10.1988 37.5045 10.0713 37.6899 9.99466C38.1422 9.73792 38.6214 9.53084 39.1189 9.3771C39.6065 9.21998 40.0838 9.03269 40.5478 8.81631C40.9837 8.61046 41.198 8.34072 41.198 7.99999C41.198 7.36822 40.7408 6.82874 39.8191 6.37444C38.7573 5.8805 37.6393 5.51584 36.4895 5.28837C35.1418 4.99634 33.7767 4.79006 32.4026 4.6708C30.9736 4.53593 29.7732 4.47204 28.7944 4.47204C27.8155 4.47204 26.6509 4.53593 25.0718 4.6708C23.4928 4.80567 21.8638 5.00443 20.0704 5.28837C18.277 5.57231 16.4979 5.94143 14.633 6.40283C12.9234 6.83026 11.2509 7.39283 9.63156 8.08517C8.28014 8.6469 7.02442 9.41315 5.90903 10.3567C5.46386 10.7127 5.09483 11.1536 4.82366 11.6534C4.55249 12.1532 4.38464 12.7019 4.33 13.2671C4.25855 13.9059 4.67295 14.5306 5.57322 15.1482C6.69308 15.8751 7.89138 16.4751 9.14571 16.937C10.6128 17.5191 12.28 18.0798 14.1472 18.6193C16.0144 19.1588 17.884 19.6817 19.756 20.1881C21.6375 20.6944 23.4237 21.1984 25.1147 21.7001C26.8057 22.2017 28.2156 22.6749 29.3445 23.1198C30.4306 23.5741 31.6095 24.1206 32.867 24.7737C34.0671 25.4261 35.2074 26.1814 36.2752 27.031C37.3243 27.8281 38.2385 28.7867 38.9831 29.8704C39.6895 30.8939 40.0635 32.1077 40.0548 33.3487C40.0779 34.4326 39.7552 35.496 39.1331 36.3868C38.5041 37.2521 37.6825 37.9614 36.7324 38.4596C35.6655 39.0272 34.5154 39.4248 33.3243 39.6379C32.0216 39.8816 30.6987 40.0028 29.3731 40C26.4126 40.0005 23.4593 39.7104 20.5562 39.1339C17.694 38.5566 14.8911 37.7202 12.1823 36.6353C11.1197 36.2272 10.084 35.7531 9.0814 35.2156C8.01468 34.6541 7.01317 33.978 6.0948 33.1996C5.21448 32.4821 4.44213 31.6431 3.80127 30.708C3.20364 29.8016 2.89032 28.7392 2.901 27.6557C2.90598 27.0761 3.02998 26.5037 3.26539 25.9734C3.51558 25.4023 3.88025 24.8878 4.33714 24.4614C4.83706 23.9929 5.42119 23.6221 6.05908 23.3682C6.80435 23.0611 7.60294 22.9019 8.40977 22.8997C8.63721 22.9003 8.86422 22.9193 9.08855 22.9565C9.34002 22.9772 9.58389 23.0523 9.80304 23.1765C9.88108 23.2119 9.94811 23.2675 9.99713 23.3374C10.0461 23.4073 10.0754 23.4891 10.0817 23.5741C10.0817 23.7231 9.89593 23.9077 9.51724 24.1277C8.87896 24.5063 8.30736 24.8258 7.80245 25.086C7.348 25.3101 6.91305 25.5713 6.50207 25.8669C6.18679 26.0829 5.91933 26.3607 5.71612 26.6832C5.53944 26.9792 5.45029 27.3187 5.4589 27.6628C5.45882 28.2442 5.63839 28.8116 5.97334 29.2883C6.35203 29.8172 6.79882 30.2945 7.3023 30.708C7.80672 31.1415 8.3442 31.5355 8.90992 31.8864C9.36893 32.1768 9.84624 32.4376 10.3389 32.6672C13.1106 34.0731 16.0452 35.1363 19.0772 35.8331C22.163 36.559 25.3232 36.9259 28.4943 36.9263C29.0587 36.9263 29.8018 36.9263 30.7235 36.8695C31.6466 36.8311 32.5634 36.7003 33.46 36.4791C34.2851 36.2869 35.0675 35.9452 35.7679 35.4711C36.0778 35.2557 36.3288 34.9671 36.4985 34.6313C36.6681 34.2955 36.751 33.923 36.7396 33.5474C36.7177 32.9517 36.562 32.3685 36.2838 31.8403C36.0056 31.3122 35.6121 30.8525 35.132 30.4951C33.9253 29.4954 32.598 28.6489 31.1808 27.9751C29.5663 27.1886 27.8944 26.5242 26.1793 25.9875C24.4074 25.4244 22.8474 24.9512 21.4994 24.5678C17.5839 23.4463 14.2496 22.4549 11.4964 21.5936C9.19574 20.9149 6.95048 20.0629 4.78013 19.0452C3.37856 18.4291 2.11345 17.5438 1.0576 16.4401C0.680076 16.0024 0.393525 15.4948 0.214482 14.9466C0.0354393 14.3983 -0.032551 13.8203 0.0144341 13.2458C0.107119 11.55 0.728926 9.92496 1.79353 8.59626C2.93584 7.1947 4.33161 6.01746 5.90903 5.1251C7.6842 4.10884 9.5678 3.29221 11.525 2.69032C13.5585 2.0437 15.6296 1.51983 17.7268 1.12156C19.6928 0.74074 21.6768 0.458808 23.6714 0.27684C25.5768 0.0922799 27.1868 0 28.5014 0Z" fill="#343A40"/>
</svg>